# xmcd
#
# Track frame offsets: 
#        150
#        22955
#        47135
#        72090
#        94922
#        124257
#        146987
#        171992
#        197630
#        223917
#        251157
#        273490
#        298600
#
# Disc length: 4309 seconds
#
# Revision: 0
# Processed by: cddbd v1.5.2PL0 Copyright (c) Steve Scherf et al.
# Submitted via: ExactAudioCopyFreeDBPlugin 1.0
#
DISCID=d510d30d
DTITLE=Various Artist - The Italian Connections 
DYEAR=1995
DGENRE=Euro-House
TTITLE0=Bronski Beat - Why '95 (The Factory Team Remix) 
TTITLE1=Kate Project - No More I Love You's (F.T. And Company Edit) 
TTITLE2=Two Powers - Someone, Somewhere (Factory Team Edit) 
TTITLE3=Cleo and Marcus - I've Got The Music In Me (Stinx Extended Vocal
TTITLE3=Mix) 
TTITLE4=Bronski Beat - Hit That Perfect Beat '95 (Club Mix) 
TTITLE5=Cold Sensation - Raise Your Hands (To The Way The Wind Blows) 
TTITLE5=(Basic Bass Mix) 
TTITLE6=Echo Bass - Gotta Dance With The Music (Brixt Mix) 
TTITLE7=Perfect Beat - Perfect Beat 
TTITLE8=Increase Joy - I Need Your Love (Love 4 Love Mix) 
TTITLE9=Michael K. - Where Can I Go (Odyssey To Digital) 
TTITLE10=Prophecy - I Keep Calling You (Extended Mix) 
TTITLE11=DJ Panda - It's A Dream '95 (World Extended Mix) 
TTITLE12=R. To R. - My Romance (Gipsy Club Mix) 
EXTD=
EXTT0=
EXTT1=
EXTT2=
EXTT3=
EXTT4=
EXTT5=
EXTT6=
EXTT7=
EXTT8=
EXTT9=
EXTT10=
EXTT11=
EXTT12=
PLAYORDER=
